<svg width="41" height="40" viewBox="0 0 41 40" fill="none" xmlns="http://www.w3.org/2000/svg">
<g clip-path="url(#clip0_1071_3)">
<mask id="mask0_1071_3" style="mask-type:luminance" maskUnits="userSpaceOnUse" x="0" y="0" width="41" height="40">
<path d="M41 0.0973434H0V39.0505H41V0.0973434Z" fill="white"/>
</mask>
<g mask="url(#mask0_1071_3)">
<path d="M41 16.6872C41 7.54083 31.8034 0.0973434 20.5 0.0973434C9.19661 0.0973434 0 7.54083 0 16.6872C0 24.8886 7.29161 31.7566 17.1452 33.0526C17.8114 33.1977 18.7216 33.4924 18.9516 34.0586C19.158 34.5732 19.0877 35.3826 19.0173 35.9066C19.0173 35.9066 18.778 37.3475 18.7264 37.6563C18.6372 38.171 18.3134 39.6774 20.5 38.7604C22.6866 37.8435 32.3054 31.8268 36.6081 26.8911C39.5783 23.6443 41.0047 20.3458 41.0047 16.6872" fill="white"/>
<path d="M16.3346 12.2663H14.8989C14.6784 12.2663 14.5 12.444 14.5 12.6639V21.5717C14.5 21.7916 14.6784 21.9694 14.8989 21.9694H16.3346C16.5553 21.9694 16.7335 21.7916 16.7335 21.5717V12.6639C16.7335 12.444 16.5553 12.2663 16.3346 12.2663Z" fill="#353E41"/>
<path d="M26.2334 12.2663H24.7977C24.577 12.2663 24.3988 12.444 24.3988 12.6639V17.9554L20.3073 12.444C20.3073 12.444 20.2884 12.416 20.2743 12.4019C20.265 12.3926 20.2604 12.3832 20.2509 12.3785C20.2509 12.3785 20.2463 12.3785 20.2415 12.3739C20.2368 12.3692 20.2274 12.3598 20.2181 12.3551C20.2181 12.3551 20.2133 12.3505 20.2087 12.3458C20.204 12.3411 20.1946 12.3364 20.1899 12.3318C20.1899 12.3318 20.1805 12.3271 20.1758 12.3224C20.1664 12.3224 20.1618 12.313 20.1524 12.3084C20.1524 12.3084 20.143 12.3084 20.1383 12.3037C20.1289 12.3037 20.1243 12.299 20.1148 12.2943C20.1148 12.2943 20.1055 12.2943 20.1007 12.2943C20.0914 12.2943 20.0867 12.2897 20.0773 12.285C20.0773 12.285 20.0679 12.285 20.0632 12.285C20.0538 12.285 20.0492 12.285 20.0397 12.2803C20.0351 12.2803 20.0304 12.2803 20.021 12.2803C20.0163 12.2803 20.0069 12.2803 20.0022 12.2803C19.9976 12.2803 19.9882 12.2803 19.9835 12.2803C19.9787 12.2803 19.9741 12.2803 19.9694 12.2803H18.5336C18.3131 12.2803 18.1348 12.4581 18.1348 12.678V21.5858C18.1348 21.8057 18.3131 21.9835 18.5336 21.9835H19.9694C20.1899 21.9835 20.3682 21.8057 20.3682 21.5858V16.2945L24.4645 21.8151C24.4926 21.8525 24.5255 21.8853 24.5677 21.9133C24.577 21.9179 24.5818 21.9227 24.5911 21.9274C24.5911 21.9274 24.6006 21.9274 24.6006 21.932C24.6052 21.932 24.6146 21.9366 24.6193 21.9414C24.624 21.9414 24.6334 21.9461 24.6381 21.9507C24.6381 21.9507 24.6475 21.9507 24.6521 21.9507C24.6616 21.9507 24.6709 21.9554 24.6803 21.9601C24.6803 21.9601 24.6803 21.9601 24.685 21.9601C24.7178 21.9694 24.7506 21.9741 24.7882 21.9741H26.2241C26.4446 21.9741 26.6229 21.7964 26.6229 21.5765V12.6686C26.6229 12.4487 26.4446 12.2709 26.2241 12.2709" fill="#353E41"/>
<path d="M12.8705 19.7378H8.96198V12.6639C8.96198 12.444 8.78368 12.2663 8.56315 12.2663H7.12734C6.90681 12.2663 6.72852 12.444 6.72852 12.6639V21.5717C6.72852 21.6794 6.77075 21.7777 6.84112 21.8479C6.84112 21.8479 6.84112 21.8479 6.84581 21.8525C6.84581 21.8525 6.84581 21.8525 6.85052 21.8572C6.92089 21.9274 7.01942 21.9694 7.12734 21.9694H12.8705C13.091 21.9694 13.2694 21.7916 13.2694 21.5717V20.1401C13.2694 19.9203 13.091 19.7425 12.8705 19.7425" fill="#353E41"/>
<path d="M34.1725 14.4979C34.393 14.4979 34.5713 14.3201 34.5713 14.1003V12.6687C34.5713 12.4488 34.393 12.271 34.1725 12.271H28.4293C28.3214 12.271 28.2229 12.3131 28.1524 12.3833C28.1524 12.3833 28.1524 12.3879 28.1478 12.3926C28.0773 12.4628 28.0352 12.561 28.0352 12.6687V21.5765C28.0352 21.6841 28.0773 21.7823 28.1478 21.8525C28.1478 21.8525 28.1478 21.8525 28.1524 21.8572C28.1524 21.8572 28.1524 21.8572 28.1571 21.8619C28.2275 21.9321 28.326 21.9742 28.434 21.9742H34.1771C34.3977 21.9742 34.5759 21.7964 34.5759 21.5765V20.1449C34.5759 19.925 34.3977 19.7472 34.1771 19.7472H30.2686V18.2408H34.1771C34.3977 18.2408 34.5759 18.063 34.5759 17.8431V16.4115C34.5759 16.1916 34.3977 16.0138 34.1771 16.0138H30.2686V14.5074H34.1771L34.1725 14.4979Z" fill="#353E41"/>
</g>
</g>
<defs>
<clipPath id="clip0_1071_3">
<rect width="41" height="40" fill="white"/>
</clipPath>
</defs>
</svg>
