<svg xmlns="http://www.w3.org/2000/svg" viewBox="0 0 20 20"><path d="M5.85 19.99A5.86 5.86 0 0 1 0 14.14v-8.3A5.85 5.85 0 0 1 5.85 0h8.3A5.86 5.86 0 0 1 20 5.85v8.3A5.85 5.85 0 0 1 14.15 20h-8.3v-.01ZM1.87 5.85v8.3a3.98 3.98 0 0 0 3.98 3.98h8.3c2.2 0 3.98-1.78 3.98-3.98v-8.3a3.98 3.98 0 0 0-3.98-3.98h-8.3a3.98 3.98 0 0 0-3.98 3.98ZM4.84 10a5.17 5.17 0 0 1 5.17-5.17A5.17 5.17 0 0 1 15.18 10a5.17 5.17 0 0 1-10.34 0Zm1.87 0a3.3 3.3 0 1 0 6.6-.01 3.3 3.3 0 0 0-6.6 0Zm8.36-4.12a1.25 1.25 0 1 1 1.5-.93 1.24 1.24 0 0 1-1.5.93Z"/></svg>