<svg width="154" height="43" viewBox="0 0 154 43" fill="none" xmlns="http://www.w3.org/2000/svg">
<g clip-path="url(#clip0_1077_14)">
<path d="M22.589 12.46H22.585L10.0527 29.9882H13.085L25.6213 12.46H22.589Z" fill="#E8413E"/>
<path d="M19.5647 14.98H16.3913C14.4236 14.98 12.8308 16.5727 12.8308 18.5405C12.8308 19.9155 13.6131 21.1131 14.7542 21.7058L14.4679 22.105L13.2784 23.7703C12.5647 23.3429 11.9437 22.7784 11.4599 22.105C10.7341 21.105 10.3066 19.8752 10.3066 18.5445C10.3066 17.2139 10.7341 15.984 11.4599 14.984C12.5647 13.4558 14.3591 12.4639 16.3873 12.4639H21.3631L19.5607 14.984L19.5647 14.98Z" fill="white"/>
<path d="M19.9469 22.1011H24.2655V29.9882H21.7453V24.6212H18.1445L19.9469 22.1011Z" fill="white"/>
<path d="M58.5053 25.105L55.6142 20.7501H52.4247V25.105H48.957V9.47998H55.4449C56.7715 9.47998 57.9247 9.70982 58.9045 10.1735C59.8803 10.6332 60.6344 11.2905 61.1626 12.1372C61.6908 12.984 61.9569 13.988 61.9569 15.1493C61.9569 16.3106 61.6908 17.3106 61.1545 18.1534C60.6182 18.9961 59.8602 19.6372 58.8723 20.0848L62.2352 25.109H58.5094L58.5053 25.105ZM57.6303 13.1292C57.086 12.6614 56.2957 12.4276 55.2513 12.4276H52.4247V17.8751H55.2513C56.2916 17.8751 57.086 17.6372 57.6303 17.1614C58.1707 16.6856 58.4449 16.0163 58.4449 15.1534C58.4449 14.2905 58.1747 13.6009 57.6303 13.1332V13.1292Z" fill="white"/>
<path d="M66.3027 9.47998H69.7705V25.105H66.3027V9.47998Z" fill="white"/>
<path d="M88.6816 9.47998V25.105H85.8349L78.3591 15.6171V25.105H74.9316V9.47998H77.8026L85.2542 18.9679V9.47998H88.6816Z" fill="white"/>
<path d="M103.512 17.0443H106.681V23.383C105.867 24.0241 104.923 24.512 103.855 24.8548C102.782 25.1975 101.706 25.3669 100.621 25.3669C99.0644 25.3669 97.6653 25.0201 96.4233 24.3306C95.1814 23.637 94.2056 22.6773 93.4999 21.4515C92.7943 20.2257 92.4395 18.8346 92.4395 17.2902C92.4395 15.7459 92.7943 14.3548 93.4999 13.1249C94.2056 11.8991 95.1894 10.9354 96.4435 10.2459C97.7015 9.55234 99.1128 9.20557 100.685 9.20557C102 9.20557 103.189 9.4354 104.262 9.89911C105.335 10.3588 106.234 11.0281 106.96 11.9072L104.734 14.0483C103.661 12.8749 102.371 12.2862 100.859 12.2862C99.9032 12.2862 99.0524 12.4959 98.3104 12.9112C97.5685 13.3265 96.9878 13.9152 96.5765 14.6733C96.1653 15.4314 95.9556 16.3023 95.9556 17.2862C95.9556 18.2701 96.1612 19.1169 96.5765 19.8749C96.9919 20.633 97.5644 21.2257 98.3024 21.6491C99.0403 22.0725 99.8749 22.2862 100.818 22.2862C101.818 22.2862 102.718 22.0644 103.516 21.6169V17.0402L103.512 17.0443Z" fill="white"/>
<path d="M122.173 12.3792V16.5082H129.112V19.4114H122.173V25.105H118.705V9.47998H130.036V12.3832H122.177L122.173 12.3792Z" fill="white"/>
<path d="M133.996 9.47998H137.464V25.105H133.996V9.47998Z" fill="white"/>
<path d="M145.734 12.4237H140.936V9.47607H154V12.4237H149.202V25.1051H145.734V12.4237Z" fill="white"/>
<path d="M68.5157 30.4557C68.8383 30.6049 69.0842 30.8186 69.2536 31.0968C69.4229 31.375 69.5117 31.7057 69.5117 32.0887C69.5117 32.4718 69.427 32.7944 69.2536 33.0766C69.0802 33.3589 68.8342 33.5726 68.5157 33.7218C68.1931 33.871 67.8181 33.9436 67.3826 33.9436H66.2536V35.4476H65.3262V30.2339H67.3826C67.8141 30.2339 68.1931 30.3065 68.5157 30.4557ZM68.2617 32.8508C68.4713 32.6734 68.5762 32.4153 68.5762 32.0847C68.5762 31.754 68.4713 31.496 68.2617 31.3186C68.052 31.1411 67.7455 31.0484 67.3383 31.0484H66.2536V33.1169H67.3383C67.7415 33.1169 68.052 33.0282 68.2617 32.8508Z" fill="white"/>
<path d="M75.0898 34.6332V35.4437H71.3398V30.23H74.993V31.0405H72.2712V32.3953H74.6865V33.1937H72.2712V34.6332H75.0938H75.0898Z" fill="white"/>
<path d="M80.6608 35.4437L79.6406 33.9155C79.5963 33.9195 79.5318 33.9235 79.4471 33.9235H78.318V35.4437H77.3906V30.23H79.4471C79.8785 30.23 80.2576 30.3026 80.5801 30.4518C80.9027 30.6009 81.1487 30.8147 81.318 31.0929C81.4874 31.3711 81.5761 31.7018 81.5761 32.0848C81.5761 32.4679 81.4834 32.8147 81.3019 33.0969C81.1205 33.3792 80.8543 33.5929 80.5116 33.73L81.6608 35.4437H80.6608ZM80.3261 31.3187C80.1164 31.1413 79.81 31.0485 79.4027 31.0485H78.318V33.1251H79.4027C79.8059 33.1251 80.1164 33.0324 80.3261 32.8509C80.5358 32.6695 80.6406 32.4114 80.6406 32.0808C80.6406 31.7501 80.5358 31.4921 80.3261 31.3147V31.3187Z" fill="white"/>
<path d="M84.5775 35.3466C84.2186 35.2337 83.9324 35.0805 83.7227 34.891L84.0452 34.1369C84.2508 34.3063 84.5009 34.4434 84.7993 34.5523C85.0977 34.6571 85.3961 34.7135 85.6945 34.7135C86.0654 34.7135 86.3436 34.6531 86.5291 34.5281C86.7106 34.4031 86.8033 34.2377 86.8033 34.0361C86.8033 33.8869 86.7509 33.766 86.6501 33.6692C86.5493 33.5724 86.4162 33.4958 86.259 33.4434C86.1017 33.391 85.888 33.3265 85.6138 33.2579C85.2348 33.1652 84.9243 33.0684 84.6904 32.9756C84.4525 32.8829 84.2509 32.7337 84.0816 32.5321C83.9122 32.3305 83.8275 32.0603 83.8275 31.7176C83.8275 31.4273 83.9041 31.1692 84.0533 30.9313C84.2025 30.6974 84.4283 30.5079 84.7307 30.3708C85.0332 30.2337 85.4041 30.1611 85.8436 30.1611C86.1501 30.1611 86.4485 30.2015 86.7428 30.2821C87.0372 30.3627 87.2912 30.4756 87.509 30.6248L87.2146 31.3789C86.9969 31.2458 86.767 31.145 86.5291 31.0724C86.2912 31.0039 86.0614 30.9676 85.8356 30.9676C85.4686 30.9676 85.1945 31.0321 85.017 31.1611C84.8396 31.2902 84.7509 31.4595 84.7509 31.6732C84.7509 31.8224 84.8033 31.9434 84.9041 32.0402C85.0049 32.1329 85.1379 32.2095 85.2952 32.2619C85.4524 32.3144 85.6662 32.3789 85.9364 32.4474C86.3074 32.5361 86.6138 32.6289 86.8517 32.7256C87.0896 32.8224 87.2953 32.9716 87.4646 33.1692C87.634 33.3668 87.7186 33.6369 87.7186 33.9756C87.7186 34.2619 87.642 34.524 87.4928 34.7579C87.3436 34.9918 87.1138 35.1773 86.8114 35.3144C86.5049 35.4515 86.134 35.524 85.6945 35.524C85.3074 35.524 84.9364 35.4676 84.5775 35.3547V35.3466Z" fill="white"/>
<path d="M90.6133 35.1734C90.2021 34.9435 89.8835 34.6209 89.6496 34.2137C89.4158 33.8024 89.2988 33.3467 89.2988 32.8387C89.2988 32.3306 89.4158 31.875 89.6496 31.4637C89.8835 31.0524 90.2061 30.7338 90.6133 30.504C91.0206 30.2742 91.4843 30.1572 91.9924 30.1572C92.5004 30.1572 92.9601 30.2742 93.3714 30.504C93.7827 30.7338 94.1012 31.0524 94.3351 31.4596C94.569 31.8669 94.6859 32.3266 94.6859 32.8387C94.6859 33.3508 94.569 33.8105 94.3351 34.2177C94.1012 34.625 93.7787 34.9435 93.3714 35.1774C92.9641 35.4113 92.5004 35.5242 91.9924 35.5242C91.4843 35.5242 91.0246 35.4072 90.6133 35.1774V35.1734ZM92.8956 34.4355C93.1617 34.2782 93.3714 34.0605 93.5246 33.7822C93.6779 33.5 93.7545 33.1855 93.7545 32.8387C93.7545 32.4919 93.6779 32.1774 93.5246 31.8951C93.3714 31.6129 93.1617 31.3951 92.8956 31.2419C92.6295 31.0887 92.327 31.008 91.9964 31.008C91.6658 31.008 91.3633 31.0846 91.0972 31.2419C90.8311 31.3992 90.6214 31.6169 90.4682 31.8951C90.315 32.1774 90.2383 32.4919 90.2383 32.8387C90.2383 33.1855 90.315 33.5 90.4682 33.7822C90.6214 34.0645 90.8311 34.2822 91.0972 34.4355C91.3633 34.5927 91.6658 34.6693 91.9964 34.6693C92.327 34.6693 92.6295 34.5927 92.8956 34.4355Z" fill="white"/>
<path d="M101.084 30.23V35.4437H100.318L97.5601 31.9114V35.4437H96.6367V30.23H97.4028L100.161 33.7622V30.23H101.084Z" fill="white"/>
<path d="M106.871 34.238H104.371L103.879 35.4437H102.924L105.174 30.23H106.089L108.347 35.4437H107.375L106.875 34.238H106.871ZM106.565 33.48L105.621 31.2018L104.686 33.48H106.565Z" fill="white"/>
<path d="M110.406 30.23H111.334V34.6251H113.951V35.4437H110.406V30.23Z" fill="white"/>
<path d="M122.934 32.7784H123.813V34.8551C123.555 35.0688 123.257 35.2341 122.914 35.347C122.571 35.4599 122.216 35.5164 121.858 35.5164C121.35 35.5164 120.89 35.3994 120.479 35.1696C120.067 34.9397 119.749 34.6212 119.515 34.2099C119.281 33.8026 119.164 33.343 119.164 32.8309C119.164 32.3188 119.281 31.8591 119.515 31.4518C119.749 31.0446 120.071 30.726 120.483 30.4962C120.894 30.2663 121.358 30.1494 121.874 30.1494C122.293 30.1494 122.672 30.222 123.019 30.3631C123.362 30.5083 123.652 30.718 123.882 30.9962L123.297 31.593C122.918 31.1978 122.458 30.9962 121.918 30.9962C121.567 30.9962 121.253 31.0728 120.979 31.226C120.704 31.3793 120.491 31.597 120.333 31.8752C120.18 32.1534 120.1 32.472 120.1 32.8309C120.1 33.1897 120.176 33.4922 120.333 33.7704C120.491 34.0486 120.704 34.2663 120.979 34.4276C121.253 34.5849 121.563 34.6655 121.91 34.6655C122.301 34.6655 122.644 34.5768 122.938 34.3954V32.7704L122.934 32.7784Z" fill="white"/>
<path d="M128.391 33.605V35.4437H127.464V33.6171L125.5 30.23H126.492L127.956 32.7703L129.435 30.23H130.351L128.391 33.605Z" fill="white"/>
<path d="M136.749 35.4437L136.741 31.988L135.096 34.8469H134.681L133.036 32.0324V35.4437H132.148V30.23H132.915L134.902 33.6856L136.854 30.23H137.62L137.628 35.4437H136.749Z" fill="white"/>
<path d="M18.3802 2.5121L34.5858 11.8669V29.3226L36.7592 30.5806V10.6129L18.3802 0L1.08984 9.98387L3.26322 11.2379L18.3802 2.5121Z" fill="white"/>
<path d="M18.379 39.9357L2.17339 30.5809V13.1212L0 11.8672V31.8349L18.379 42.4478L35.6734 32.464L33.496 31.2059L18.379 39.9357Z" fill="white"/>
</g>
<defs>
<clipPath id="clip0_1077_14">
<rect width="154" height="43" fill="white"/>
</clipPath>
</defs>
</svg>
