<svg xmlns="http://www.w3.org/2000/svg" viewBox="0 0 29 29"><path d="M23.368 5.8a6.906 6.906 0 0 1-3.047-4.54A6.247 6.247 0 0 1 20.195 0h-4.96v19.943c-.104 2.227-1.933 4.013-4.181 4.013a3.997 3.997 0 0 1-1.934-.483 4.201 4.201 0 0 1-2.248-3.698 4.18 4.18 0 0 1 5.421-3.993v-5.065a8.013 8.013 0 0 0-1.24-.084c-5.064 0-9.162 4.098-9.162 9.142 0 3.089 1.555 5.842 3.909 7.502a9.079 9.079 0 0 0 5.254 1.66c5.043 0 9.162-4.098 9.162-9.162V9.667a11.801 11.801 0 0 0 6.914 2.227v-4.98c-1.387 0-2.69-.4-3.762-1.114Z"/></svg>